<?xml version="1.0" standalone="no"?>
<!DOCTYPE svg PUBLIC "-//W3C//DTD SVG 20010904//EN"
 "http://www.w3.org/TR/2001/REC-SVG-20010904/DTD/svg10.dtd">
<svg version="1.0" xmlns="http://www.w3.org/2000/svg"
 width="140.000000pt" height="140.000000pt" viewBox="0 0 140.000000 140.000000"
 preserveAspectRatio="xMidYMid meet">

<g transform="translate(0.000000,140.000000) scale(0.100000,-0.100000)"
fill="#000000" stroke="none">
<path d="M0 700 l0 -700 700 0 700 0 0 700 0 700 -700 0 -700 0 0 -700z m534
601 c46 -29 79 -93 80 -157 l0 -54 81 0 c50 0 86 -5 93 -12 9 -9 12 -76 12
-239 l0 -227 23 -6 c12 -3 68 -52 125 -109 97 -99 102 -106 102 -147 0 -40 -5
-48 -97 -143 -157 -165 -182 -169 -298 -56 l-70 68 -236 3 c-182 2 -240 6
-252 17 -15 12 -17 54 -17 417 0 353 2 405 16 418 11 12 36 16 95 16 l79 0 0
56 c0 90 40 150 118 175 39 12 109 2 146 -20z m774 -800 c8 -5 12 -17 10 -27
-3 -18 -15 -19 -163 -19 -148 0 -160 1 -163 19 -2 10 2 22 10 27 17 11 289 11
306 0z m7 -161 c0 -25 0 -25 -106 -28 -85 -2 -108 0 -119 13 -10 12 -10 18 0
30 11 13 34 15 119 13 106 -3 106 -3 106 -28z m3 -134 c2 -10 -2 -22 -10 -27
-15 -10 -268 -12 -292 -3 -19 7 -21 40 -3 48 6 2 77 4 157 3 133 -2 145 -4
148 -21z"/>
<path d="M387 1306 c-76 -28 -107 -78 -107 -171 l0 -55 -83 0 c-51 0 -88 -5
-95 -12 -17 -17 -17 -799 0 -816 9 -9 78 -12 248 -12 l236 0 73 -74 c111 -111
131 -110 264 22 152 150 153 159 15 299 -57 57 -113 106 -125 109 l-23 6 0
227 c0 163 -3 230 -12 239 -7 7 -44 12 -94 12 l-82 0 -4 70 c-3 50 -9 77 -24
97 -43 58 -122 83 -187 59z m125 -44 c43 -25 61 -74 56 -146 -6 -72 -30 -124
-87 -186 l-41 -45 -39 43 c-53 57 -83 125 -89 199 -4 51 -1 67 18 97 12 20 22
36 23 36 1 0 20 7 42 14 43 16 74 12 117 -12z m-204 -254 c11 -24 38 -67 61
-95 34 -42 49 -53 72 -53 23 0 37 11 70 53 23 28 51 71 62 95 l21 42 83 0 83
0 0 -246 0 -245 -52 -50 c-29 -27 -55 -49 -58 -49 -3 0 -24 18 -45 40 -25 25
-48 40 -64 40 -29 0 -71 -36 -71 -61 0 -10 35 -52 77 -93 77 -74 77 -74 59
-95 -18 -20 -29 -21 -253 -21 l-233 0 0 390 0 390 85 0 84 0 19 -42z m604
-535 c130 -129 130 -125 -5 -260 -71 -71 -110 -103 -126 -103 -34 0 -167 131
-158 155 5 12 14 15 32 11 44 -11 28 15 -67 111 -92 92 -92 93 -73 113 20 19
20 19 103 -57 90 -82 120 -91 70 -21 -10 14 -10 20 0 30 9 9 17 7 35 -10 13
-12 29 -22 35 -22 19 0 14 25 -8 45 -24 22 -25 34 -4 42 8 3 25 -4 39 -17 35
-33 51 -15 21 24 -19 25 -22 36 -13 45 6 6 13 11 16 11 3 0 50 -44 103 -97z"/>
<path d="M204 727 c-2 -7 -4 -54 -2 -103 l3 -89 65 -3 c113 -5 111 -7 108 106
l-3 97 -83 3 c-62 2 -84 0 -88 -11z m161 -92 l0 -80 -75 0 -75 0 -3 83 -3 83
78 -3 78 -3 0 -80z"/>
<path d="M180 450 c0 -6 41 -10 104 -10 59 0 108 4 111 10 4 6 -33 10 -104 10
-67 0 -111 -4 -111 -10z"/>
<path d="M232 373 c32 -2 84 -2 115 0 32 2 6 3 -57 3 -63 0 -89 -1 -58 -3z"/>
<path d="M1003 478 c3 -10 42 -13 152 -13 110 0 149 3 153 13 3 9 -32 12 -153
12 -121 0 -156 -3 -152 -12z"/>
<path d="M1090 340 c0 -6 40 -10 100 -10 55 0 103 0 107 -1 4 0 9 4 11 10 2 7
-33 11 -107 11 -67 0 -111 -4 -111 -10z"/>
<path d="M1017 214 c-20 -20 5 -24 144 -24 116 0 150 3 147 13 -3 9 -44 13
-144 15 -77 1 -143 -1 -147 -4z"/>
</g>
</svg>
