<?xml version="1.0" standalone="no"?>
<!DOCTYPE svg PUBLIC "-//W3C//DTD SVG 20010904//EN"
 "http://www.w3.org/TR/2001/REC-SVG-20010904/DTD/svg10.dtd">
<svg version="1.0" xmlns="http://www.w3.org/2000/svg"
 width="140.000000pt" height="140.000000pt" viewBox="0 0 140.000000 140.000000"
 preserveAspectRatio="xMidYMid meet">

<g transform="translate(0.000000,140.000000) scale(0.100000,-0.100000)"
fill="#000000" stroke="none">
<path d="M0 700 l0 -700 700 0 700 0 0 700 0 700 -700 0 -700 0 0 -700z m835
545 c201 -53 359 -210 410 -410 18 -70 19 -182 4 -257 -41 -196 -209 -370
-409 -423 -65 -18 -188 -19 -262 -4 -199 41 -371 209 -423 414 -75 293 108
599 406 679 72 19 201 20 274 1z"/>
<path d="M586 1238 c-194 -37 -374 -213 -421 -410 -81 -344 182 -678 535 -678
353 0 616 333 535 678 -24 99 -70 179 -151 260 -133 133 -309 186 -498 150z
m258 -78 c133 -42 256 -157 306 -287 28 -72 37 -203 20 -282 -30 -137 -129
-260 -264 -327 l-80 -39 -126 0 c-125 0 -127 0 -200 37 -94 46 -147 92 -199
169 -61 91 -84 179 -79 292 6 112 32 184 96 270 121 158 334 226 526 167z"/>
<path d="M473 903 c-62 -4 -63 -4 -63 -33 l0 -30 65 0 65 0 0 35 c0 19 -1 34
-2 33 -2 -1 -31 -3 -65 -5z"/>
<path d="M860 870 l0 -30 65 0 65 0 0 30 0 30 -65 0 -65 0 0 -30z"/>
<path d="M960 680 c0 -36 -33 -110 -67 -149 -87 -102 -233 -119 -342 -41 -51
37 -97 107 -106 161 -6 36 -9 39 -40 39 -33 0 -34 -1 -28 -37 8 -54 45 -133
82 -176 18 -20 63 -51 99 -69 57 -28 77 -33 142 -33 85 0 158 28 223 84 40 36
92 135 100 192 5 36 4 37 -29 41 -26 3 -34 0 -34 -12z"/>
</g>
</svg>
