<?xml version="1.0" standalone="no"?>
<!DOCTYPE svg PUBLIC "-//W3C//DTD SVG 20010904//EN"
 "http://www.w3.org/TR/2001/REC-SVG-20010904/DTD/svg10.dtd">
<svg version="1.0" xmlns="http://www.w3.org/2000/svg"
 width="140.000000pt" height="140.000000pt" viewBox="0 0 140.000000 140.000000"
 preserveAspectRatio="xMidYMid meet">

<g transform="translate(0.000000,140.000000) scale(0.100000,-0.100000)"
fill="#000000" stroke="none">
<path d="M0 700 l0 -700 700 0 700 0 0 700 0 700 -700 0 -700 0 0 -700z m825
629 c29 -20 51 -28 81 -27 54 1 78 -13 106 -64 14 -24 39 -50 63 -64 51 -28
68 -54 71 -114 1 -35 10 -59 28 -83 35 -46 42 -88 21 -121 -15 -22 -16 -39
-11 -97 l7 -71 -39 -37 c-45 -43 -62 -70 -62 -101 0 -31 -51 -77 -93 -85 -21
-4 -37 -11 -37 -15 0 -4 24 -79 54 -166 30 -87 53 -161 51 -163 -2 -2 -39 9
-81 23 -43 14 -78 25 -79 23 -26 -41 -90 -127 -94 -127 -3 0 -29 67 -56 149
-28 82 -53 146 -56 143 -4 -4 -28 -71 -54 -149 -25 -79 -50 -143 -54 -143 -5
0 -27 27 -50 60 -23 33 -48 60 -54 60 -7 0 -41 -9 -75 -20 -35 -11 -68 -20
-72 -20 -5 0 13 65 40 144 l48 144 -32 53 c-21 35 -47 62 -76 79 -52 30 -70
59 -70 115 0 27 -10 54 -30 84 -35 52 -37 78 -10 130 17 35 18 45 8 95 l-12
56 48 49 c34 34 50 61 57 92 13 57 22 66 83 84 35 11 62 28 88 56 l36 40 74
-2 c49 -2 86 3 113 14 46 19 65 15 120 -24z"/>
<path d="M686 1334 c-21 -12 -44 -14 -95 -9 l-66 6 -41 -44 c-26 -28 -54 -46
-75 -51 -55 -11 -76 -31 -89 -86 -9 -38 -21 -57 -47 -77 -50 -38 -56 -55 -42
-117 10 -47 9 -56 -11 -95 -25 -50 -21 -77 16 -126 16 -22 24 -45 24 -73 0
-58 16 -87 64 -111 28 -15 53 -41 79 -81 l39 -59 -43 -128 c-23 -70 -44 -134
-46 -140 -4 -9 13 -6 53 7 88 31 96 28 142 -41 l40 -61 53 161 c30 88 56 161
59 161 3 0 27 -66 54 -148 27 -81 52 -151 55 -155 4 -4 27 19 50 53 23 33 44
60 46 60 1 0 33 -9 70 -21 37 -11 69 -19 70 -17 2 2 -18 68 -46 147 -27 78
-49 151 -49 161 0 14 10 20 42 25 53 9 83 40 91 93 6 32 16 48 47 73 49 39 55
57 40 119 -10 43 -9 52 10 90 24 47 20 69 -24 134 -18 27 -26 52 -26 83 0 36
-5 49 -27 69 -16 13 -45 41 -66 61 -20 21 -48 50 -61 66 -21 22 -33 27 -74 27
-40 0 -57 6 -87 30 -42 34 -84 38 -129 14z m105 -41 c20 -24 76 -44 102 -38
29 8 61 -17 85 -65 9 -19 32 -42 49 -51 55 -28 63 -38 63 -88 0 -44 6 -58 53
-123 17 -24 16 -27 -4 -73 -20 -45 -21 -54 -9 -98 l12 -49 -44 -42 c-33 -30
-48 -53 -57 -88 -11 -46 -13 -48 -65 -63 -38 -11 -63 -27 -89 -56 l-36 -40
-65 7 c-56 6 -69 4 -101 -16 -33 -21 -37 -21 -58 -6 -12 9 -32 23 -43 31 -12
9 -37 16 -55 17 -69 2 -78 7 -103 57 -17 33 -36 53 -61 65 -45 21 -63 51 -63
98 0 26 -10 53 -30 83 l-30 46 20 46 c20 45 21 91 3 135 -5 13 5 29 39 59 32
30 47 52 52 78 9 47 27 68 71 76 22 4 53 23 84 52 l49 45 45 -11 c40 -10 51
-9 88 8 53 24 81 26 98 4z m-200 -909 c27 -20 49 -41 49 -47 -1 -7 -16 -55
-34 -106 l-33 -95 -28 42 c-31 47 -32 47 -86 30 -22 -6 -41 -9 -44 -6 -8 8 53
180 71 200 25 27 50 22 105 -18z m363 -81 c20 -59 34 -108 32 -110 -1 -2 -22
4 -46 12 -23 8 -46 15 -50 15 -5 0 -22 -19 -39 -42 -21 -28 -32 -37 -36 -27
-17 47 -75 224 -75 231 0 5 28 6 63 2 48 -4 67 -2 82 10 11 8 23 16 27 16 3 0
22 -48 42 -107z"/>
<path d="M605 1167 c-66 -22 -99 -43 -144 -92 -64 -70 -85 -124 -85 -220 0
-60 5 -92 21 -127 30 -66 95 -133 162 -165 48 -24 68 -28 141 -28 79 0 90 3
150 36 117 64 177 175 168 308 -12 168 -136 289 -303 297 -41 2 -87 -2 -110
-9z m210 -51 c216 -102 225 -390 17 -513 -52 -31 -151 -42 -215 -23 -64 17
-135 76 -171 140 -27 49 -31 64 -31 135 0 66 5 89 25 129 30 59 97 120 153
140 67 23 163 20 222 -8z"/>
<path d="M728 936 l-98 -101 -41 44 -42 43 -38 -39 -39 -38 83 -83 82 -82 138
138 137 138 -42 40 -43 41 -97 -101z m104 -13 c-17 -21 -67 -74 -111 -118
l-81 -79 -55 54 c-59 58 -59 58 -46 78 6 11 18 4 49 -30 l41 -43 103 102 c88
89 105 101 117 89 12 -13 10 -20 -17 -53z"/>
</g>
</svg>
