<?xml version="1.0" standalone="no"?>
<!DOCTYPE svg PUBLIC "-//W3C//DTD SVG 20010904//EN"
 "http://www.w3.org/TR/2001/REC-SVG-20010904/DTD/svg10.dtd">
<svg version="1.0" xmlns="http://www.w3.org/2000/svg"
 width="140.000000pt" height="140.000000pt" viewBox="0 0 140.000000 140.000000"
 preserveAspectRatio="xMidYMid meet">

<g transform="translate(0.000000,140.000000) scale(0.100000,-0.100000)"
fill="#000000" stroke="none">
<path d="M0 700 l0 -700 700 0 700 0 0 700 0 700 -700 0 -700 0 0 -700z m320
597 c0 -2 -10 -12 -22 -23 l-23 -19 19 23 c18 21 26 27 26 19z m1005 -17 c10
-11 16 -20 13 -20 -3 0 -13 9 -23 20 -10 11 -16 20 -13 20 3 0 13 -9 23 -20z
m-172 -32 c-4 -13 -8 -158 -8 -323 0 -286 1 -300 19 -298 13 1 15 -2 7 -10 -6
-6 -11 -26 -11 -44 0 -31 -2 -33 -20 -23 -11 6 -38 10 -60 8 -30 -1 -46 4 -61
18 l-20 21 35 51 c20 30 40 76 46 109 13 62 7 158 -12 180 -20 24 -28 -2 -18
-55 19 -105 -27 -225 -113 -294 -159 -125 -387 -69 -477 117 -32 67 -34 179
-3 246 28 63 87 125 147 157 44 23 63 27 141 27 80 0 95 -3 139 -28 35 -20 53
-24 60 -17 29 30 -105 84 -204 83 -133 -1 -243 -71 -302 -191 -29 -59 -33 -76
-33 -152 0 -71 4 -94 26 -140 36 -77 77 -121 151 -161 60 -32 68 -34 163 -34
102 0 138 11 217 67 14 10 21 9 38 -7 17 -15 20 -26 15 -52 -8 -43 10 -75 84
-148 52 -51 61 -65 61 -95 0 -20 5 -41 11 -47 8 -8 6 -11 -7 -10 -11 1 -20 -6
-22 -18 -7 -34 -33 -55 -69 -55 -42 0 -66 27 -73 83 l-5 42 -350 3 -350 2 2
468 c2 257 5 477 8 489 13 54 3 53 446 53 l410 0 -8 -22z m50 -2 c-10 -13 -20
-22 -22 -20 -4 4 29 44 36 44 2 0 -4 -11 -14 -24z m-936 -704 c-1 -125 -2 -22
-2 228 0 250 1 353 2 227 2 -125 2 -329 0 -455z m1055 639 c2 -22 0 -37 -4
-35 -8 5 -11 74 -4 74 2 0 6 -18 8 -39z m31 -32 c-5 -5 -6 11 -3 34 4 41 5 41
8 8 2 -18 0 -37 -5 -42z m-142 -716 c54 -53 101 -105 104 -114 10 -29 -12 -59
-43 -59 -22 0 -49 22 -130 104 -56 57 -102 107 -102 112 0 21 32 54 52 54 13
0 58 -37 119 -97z m146 -135 c-3 -8 -6 -5 -6 6 -1 11 2 17 5 13 3 -3 4 -12 1
-19z m-1310 -95 c-3 -10 -5 -4 -5 12 0 17 2 24 5 18 2 -7 2 -21 0 -30z m923
-9 c0 -14 5 -34 10 -45 10 -19 3 -19 -382 -21 -498 -3 -468 -5 -495 27 -13 14
-23 35 -23 46 0 19 11 19 445 19 l445 0 0 -26z m-885 -74 c10 -11 16 -20 13
-20 -3 0 -13 9 -23 20 -10 11 -16 20 -13 20 3 0 13 -9 23 -20z"/>
<path d="M884 919 l-159 -170 -53 60 c-54 62 -72 73 -72 47 0 -19 108 -146
124 -146 7 0 84 77 172 171 143 154 184 209 156 209 -5 0 -81 -77 -168 -171z"/>
</g>
</svg>
